<mxfile host="app.diagrams.net" modified="2022-03-16T14:53:21.997Z" agent="5.0 (Windows NT 10.0; Win64; x64) AppleWebKit/537.36 (KHTML, like Gecko) Chrome/99.0.4844.74 Safari/537.36" etag="tAjMvhOQkxbMkaEp4FDm" version="17.1.2" type="github">
  <diagram id="aOgKGbwrWeFkAxCtf3ib" name="Page-1">
    <mxGraphModel dx="1476" dy="790" grid="1" gridSize="10" guides="1" tooltips="1" connect="1" arrows="1" fold="1" page="1" pageScale="1" pageWidth="827" pageHeight="1169" math="0" shadow="0">
      <root>
        <mxCell id="0" />
        <mxCell id="1" parent="0" />
        <mxCell id="3AvT1jTzsXwBCu8fBLA7-1" value="" style="shape=umlActor;verticalLabelPosition=bottom;verticalAlign=top;html=1;" parent="1" vertex="1">
          <mxGeometry x="80" y="60" width="30" height="60" as="geometry" />
        </mxCell>
        <mxCell id="3AvT1jTzsXwBCu8fBLA7-2" value="Team&lt;br&gt;Document" style="shape=umlBoundary;whiteSpace=wrap;html=1;" parent="1" vertex="1">
          <mxGeometry x="210" y="50" width="100" height="80" as="geometry" />
        </mxCell>
        <mxCell id="3AvT1jTzsXwBCu8fBLA7-3" value="TeamDoc-Commit" style="ellipse;shape=umlEntity;whiteSpace=wrap;html=1;" parent="1" vertex="1">
          <mxGeometry x="630" y="50" width="80" height="80" as="geometry" />
        </mxCell>
        <mxCell id="3AvT1jTzsXwBCu8fBLA7-4" value="Contrôleur" style="ellipse;shape=umlControl;whiteSpace=wrap;html=1;" parent="1" vertex="1">
          <mxGeometry x="430" y="50" width="70" height="80" as="geometry" />
        </mxCell>
        <mxCell id="3AvT1jTzsXwBCu8fBLA7-5" value="" style="endArrow=none;dashed=1;html=1;rounded=0;entryX=0.5;entryY=1;entryDx=0;entryDy=0;startArrow=none;" parent="1" source="3AvT1jTzsXwBCu8fBLA7-46" target="3AvT1jTzsXwBCu8fBLA7-11" edge="1">
          <mxGeometry width="50" height="50" relative="1" as="geometry">
            <mxPoint x="95" y="730" as="sourcePoint" />
            <mxPoint x="440" y="240" as="targetPoint" />
          </mxGeometry>
        </mxCell>
        <mxCell id="3AvT1jTzsXwBCu8fBLA7-6" value="" style="endArrow=none;dashed=1;html=1;rounded=0;entryX=0.557;entryY=1.015;entryDx=0;entryDy=0;entryPerimeter=0;" parent="1" target="3AvT1jTzsXwBCu8fBLA7-2" edge="1">
          <mxGeometry width="50" height="50" relative="1" as="geometry">
            <mxPoint x="266" y="730" as="sourcePoint" />
            <mxPoint x="440" y="270" as="targetPoint" />
          </mxGeometry>
        </mxCell>
        <mxCell id="3AvT1jTzsXwBCu8fBLA7-7" value="" style="endArrow=none;dashed=1;html=1;rounded=0;entryX=0.557;entryY=1.015;entryDx=0;entryDy=0;entryPerimeter=0;startArrow=none;" parent="1" source="3AvT1jTzsXwBCu8fBLA7-49" edge="1">
          <mxGeometry width="50" height="50" relative="1" as="geometry">
            <mxPoint x="464" y="730" as="sourcePoint" />
            <mxPoint x="464.09000000000003" y="130.00000000000006" as="targetPoint" />
          </mxGeometry>
        </mxCell>
        <mxCell id="3AvT1jTzsXwBCu8fBLA7-8" value="" style="endArrow=none;dashed=1;html=1;rounded=0;entryX=0.557;entryY=1.015;entryDx=0;entryDy=0;entryPerimeter=0;startArrow=none;" parent="1" source="3AvT1jTzsXwBCu8fBLA7-51" edge="1">
          <mxGeometry width="50" height="50" relative="1" as="geometry">
            <mxPoint x="670" y="730" as="sourcePoint" />
            <mxPoint x="670" y="130.00000000000006" as="targetPoint" />
          </mxGeometry>
        </mxCell>
        <mxCell id="3AvT1jTzsXwBCu8fBLA7-11" value="Enseignant" style="text;html=1;strokeColor=none;fillColor=none;align=center;verticalAlign=middle;whiteSpace=wrap;rounded=0;" parent="1" vertex="1">
          <mxGeometry x="65" y="120" width="60" height="30" as="geometry" />
        </mxCell>
        <mxCell id="3AvT1jTzsXwBCu8fBLA7-12" value="TeamDocPFE" style="ellipse;shape=umlEntity;whiteSpace=wrap;html=1;" parent="1" vertex="1">
          <mxGeometry x="810" y="50" width="80" height="80" as="geometry" />
        </mxCell>
        <mxCell id="3AvT1jTzsXwBCu8fBLA7-13" value="" style="endArrow=none;dashed=1;html=1;rounded=0;entryX=0.557;entryY=1.015;entryDx=0;entryDy=0;entryPerimeter=0;startArrow=none;" parent="1" source="3AvT1jTzsXwBCu8fBLA7-53" edge="1">
          <mxGeometry width="50" height="50" relative="1" as="geometry">
            <mxPoint x="850" y="730" as="sourcePoint" />
            <mxPoint x="850" y="124.00000000000004" as="targetPoint" />
          </mxGeometry>
        </mxCell>
        <mxCell id="3AvT1jTzsXwBCu8fBLA7-14" value="Connection" style="rounded=0;whiteSpace=wrap;html=1;" parent="1" vertex="1">
          <mxGeometry x="65" y="160" width="1035" height="80" as="geometry" />
        </mxCell>
        <mxCell id="3AvT1jTzsXwBCu8fBLA7-15" value="Consulter les documents de ses équipes." style="rounded=0;whiteSpace=wrap;html=1;" parent="1" vertex="1">
          <mxGeometry x="65" y="270" width="1035" height="80" as="geometry" />
        </mxCell>
        <mxCell id="3AvT1jTzsXwBCu8fBLA7-16" value="REF&lt;span style=&quot;color: rgba(0 , 0 , 0 , 0) ; font-family: monospace ; font-size: 0px&quot;&gt;%3CmxGraphModel%3E%3Croot%3E%3CmxCell%20id%3D%220%22%2F%3E%3CmxCell%20id%3D%221%22%20parent%3D%220%22%2F%3E%3CmxCell%20id%3D%222%22%20value%3D%22%22%20style%3D%22rounded%3D0%3BwhiteSpace%3Dwrap%3Bhtml%3D1%3B%22%20vertex%3D%221%22%20parent%3D%221%22%3E%3CmxGeometry%20x%3D%2265%22%20y%3D%22160%22%20width%3D%22235%22%20height%3D%2280%22%20as%3D%22geometry%22%2F%3E%3C%2FmxCell%3E%3C%2Froot%3E%3C%2FmxGraphModel%3E&lt;/span&gt;" style="rounded=0;whiteSpace=wrap;html=1;" parent="1" vertex="1">
          <mxGeometry x="65" y="160" width="65" height="30" as="geometry" />
        </mxCell>
        <mxCell id="3AvT1jTzsXwBCu8fBLA7-17" value="REF&lt;span style=&quot;color: rgba(0 , 0 , 0 , 0) ; font-family: monospace ; font-size: 0px&quot;&gt;%3CmxGraphModel%3E%3Croot%3E%3CmxCell%20id%3D%220%22%2F%3E%3CmxCell%20id%3D%221%22%20parent%3D%220%22%2F%3E%3CmxCell%20id%3D%222%22%20value%3D%22%22%20style%3D%22rounded%3D0%3BwhiteSpace%3Dwrap%3Bhtml%3D1%3B%22%20vertex%3D%221%22%20parent%3D%221%22%3E%3CmxGeometry%20x%3D%2265%22%20y%3D%22160%22%20width%3D%22235%22%20height%3D%2280%22%20as%3D%22geometry%22%2F%3E%3C%2FmxCell%3E%3C%2Froot%3E%3C%2FmxGraphModel%3E&lt;/span&gt;" style="rounded=0;whiteSpace=wrap;html=1;" parent="1" vertex="1">
          <mxGeometry x="65" y="270" width="65" height="30" as="geometry" />
        </mxCell>
        <mxCell id="3AvT1jTzsXwBCu8fBLA7-26" value="" style="endArrow=classic;html=1;rounded=0;" parent="1" edge="1">
          <mxGeometry relative="1" as="geometry">
            <mxPoint x="100" y="370" as="sourcePoint" />
            <mxPoint x="260" y="371" as="targetPoint" />
            <Array as="points">
              <mxPoint x="180" y="371" />
            </Array>
          </mxGeometry>
        </mxCell>
        <mxCell id="3AvT1jTzsXwBCu8fBLA7-27" value="Séléctionner un&lt;br&gt;ensemble de doc" style="edgeLabel;html=1;align=center;verticalAlign=middle;resizable=0;points=[];" parent="3AvT1jTzsXwBCu8fBLA7-26" vertex="1" connectable="0">
          <mxGeometry x="0.0281" y="-2" relative="1" as="geometry">
            <mxPoint as="offset" />
          </mxGeometry>
        </mxCell>
        <mxCell id="3AvT1jTzsXwBCu8fBLA7-30" value="" style="endArrow=classic;html=1;rounded=0;" parent="1" edge="1">
          <mxGeometry relative="1" as="geometry">
            <mxPoint x="270" y="539.5" as="sourcePoint" />
            <mxPoint x="450" y="540.5" as="targetPoint" />
            <Array as="points">
              <mxPoint x="350" y="540.5" />
            </Array>
          </mxGeometry>
        </mxCell>
        <mxCell id="3AvT1jTzsXwBCu8fBLA7-31" value="Demande de validation&lt;br&gt;du document" style="edgeLabel;html=1;align=center;verticalAlign=middle;resizable=0;points=[];" parent="3AvT1jTzsXwBCu8fBLA7-30" vertex="1" connectable="0">
          <mxGeometry x="0.0281" y="-2" relative="1" as="geometry">
            <mxPoint as="offset" />
          </mxGeometry>
        </mxCell>
        <mxCell id="3AvT1jTzsXwBCu8fBLA7-32" value="" style="endArrow=classic;html=1;rounded=0;" parent="1" edge="1">
          <mxGeometry relative="1" as="geometry">
            <mxPoint x="465" y="569.5" as="sourcePoint" />
            <mxPoint x="655" y="569.5" as="targetPoint" />
            <Array as="points">
              <mxPoint x="535" y="569.5" />
            </Array>
          </mxGeometry>
        </mxCell>
        <mxCell id="3AvT1jTzsXwBCu8fBLA7-33" value="Demande de&lt;br&gt;de rendre les donné de&amp;nbsp;&lt;br&gt;doc" style="edgeLabel;html=1;align=center;verticalAlign=middle;resizable=0;points=[];" parent="3AvT1jTzsXwBCu8fBLA7-32" vertex="1" connectable="0">
          <mxGeometry x="0.0281" y="-2" relative="1" as="geometry">
            <mxPoint as="offset" />
          </mxGeometry>
        </mxCell>
        <mxCell id="3AvT1jTzsXwBCu8fBLA7-34" value="" style="endArrow=classic;html=1;rounded=0;" parent="1" edge="1">
          <mxGeometry relative="1" as="geometry">
            <mxPoint x="465" y="640" as="sourcePoint" />
            <mxPoint x="845" y="640" as="targetPoint" />
            <Array as="points">
              <mxPoint x="745" y="640" />
            </Array>
          </mxGeometry>
        </mxCell>
        <mxCell id="3AvT1jTzsXwBCu8fBLA7-35" value="Accorder l&#39;accès&lt;br&gt;au document" style="edgeLabel;html=1;align=center;verticalAlign=middle;resizable=0;points=[];" parent="3AvT1jTzsXwBCu8fBLA7-34" vertex="1" connectable="0">
          <mxGeometry x="0.0281" y="-2" relative="1" as="geometry">
            <mxPoint x="80" as="offset" />
          </mxGeometry>
        </mxCell>
        <mxCell id="3AvT1jTzsXwBCu8fBLA7-38" value="" style="endArrow=classic;html=1;rounded=0;entryX=0.039;entryY=0.977;entryDx=0;entryDy=0;entryPerimeter=0;" parent="1" target="3AvT1jTzsXwBCu8fBLA7-55" edge="1">
          <mxGeometry relative="1" as="geometry">
            <mxPoint x="460" y="770" as="sourcePoint" />
            <mxPoint x="1060" y="650" as="targetPoint" />
            <Array as="points">
              <mxPoint x="730" y="770" />
            </Array>
          </mxGeometry>
        </mxCell>
        <mxCell id="3AvT1jTzsXwBCu8fBLA7-39" value="Envoyer une&lt;br&gt;notification au&amp;nbsp;&lt;br&gt;administrateur" style="edgeLabel;html=1;align=center;verticalAlign=middle;resizable=0;points=[];" parent="3AvT1jTzsXwBCu8fBLA7-38" vertex="1" connectable="0">
          <mxGeometry x="0.0281" y="-2" relative="1" as="geometry">
            <mxPoint as="offset" />
          </mxGeometry>
        </mxCell>
        <mxCell id="3AvT1jTzsXwBCu8fBLA7-40" value="Notification" style="ellipse;shape=umlEntity;whiteSpace=wrap;html=1;" parent="1" vertex="1">
          <mxGeometry x="1020" y="50" width="80" height="80" as="geometry" />
        </mxCell>
        <mxCell id="3AvT1jTzsXwBCu8fBLA7-41" value="" style="endArrow=none;dashed=1;html=1;rounded=0;entryX=0.557;entryY=1.015;entryDx=0;entryDy=0;entryPerimeter=0;startArrow=none;" parent="1" source="3AvT1jTzsXwBCu8fBLA7-55" edge="1">
          <mxGeometry width="50" height="50" relative="1" as="geometry">
            <mxPoint x="1059.39" y="1050.57783203125" as="sourcePoint" />
            <mxPoint x="1059.09" y="130" as="targetPoint" />
          </mxGeometry>
        </mxCell>
        <mxCell id="3AvT1jTzsXwBCu8fBLA7-42" value="" style="endArrow=classic;html=1;rounded=0;" parent="1" edge="1">
          <mxGeometry relative="1" as="geometry">
            <mxPoint x="850" y="680" as="sourcePoint" />
            <mxPoint x="465" y="680" as="targetPoint" />
            <Array as="points" />
          </mxGeometry>
        </mxCell>
        <mxCell id="3AvT1jTzsXwBCu8fBLA7-43" value="Accorder Accès" style="edgeLabel;resizable=0;html=1;align=center;verticalAlign=middle;" parent="3AvT1jTzsXwBCu8fBLA7-42" connectable="0" vertex="1">
          <mxGeometry relative="1" as="geometry">
            <mxPoint x="65" y="2" as="offset" />
          </mxGeometry>
        </mxCell>
        <mxCell id="3AvT1jTzsXwBCu8fBLA7-44" value="" style="endArrow=classic;html=1;rounded=0;" parent="1" edge="1">
          <mxGeometry relative="1" as="geometry">
            <mxPoint x="455" y="800" as="sourcePoint" />
            <mxPoint x="95" y="800" as="targetPoint" />
            <Array as="points" />
          </mxGeometry>
        </mxCell>
        <mxCell id="3AvT1jTzsXwBCu8fBLA7-45" value="Envoie avec succès" style="edgeLabel;resizable=0;html=1;align=center;verticalAlign=middle;" parent="3AvT1jTzsXwBCu8fBLA7-44" connectable="0" vertex="1">
          <mxGeometry relative="1" as="geometry">
            <mxPoint x="60" as="offset" />
          </mxGeometry>
        </mxCell>
        <mxCell id="3AvT1jTzsXwBCu8fBLA7-46" value="" style="html=1;points=[];perimeter=orthogonalPerimeter;" parent="1" vertex="1">
          <mxGeometry x="88" y="350" width="10" height="500" as="geometry" />
        </mxCell>
        <mxCell id="3AvT1jTzsXwBCu8fBLA7-47" value="" style="endArrow=none;dashed=1;html=1;rounded=0;entryX=0.5;entryY=1;entryDx=0;entryDy=0;" parent="1" target="3AvT1jTzsXwBCu8fBLA7-46" edge="1">
          <mxGeometry width="50" height="50" relative="1" as="geometry">
            <mxPoint x="95" y="730" as="sourcePoint" />
            <mxPoint x="95" y="150" as="targetPoint" />
          </mxGeometry>
        </mxCell>
        <mxCell id="3AvT1jTzsXwBCu8fBLA7-48" value="" style="html=1;points=[];perimeter=orthogonalPerimeter;" parent="1" vertex="1">
          <mxGeometry x="260" y="350" width="10" height="490" as="geometry" />
        </mxCell>
        <mxCell id="3AvT1jTzsXwBCu8fBLA7-49" value="" style="html=1;points=[];perimeter=orthogonalPerimeter;" parent="1" vertex="1">
          <mxGeometry x="455" y="440" width="10" height="380" as="geometry" />
        </mxCell>
        <mxCell id="3AvT1jTzsXwBCu8fBLA7-50" value="" style="endArrow=none;dashed=1;html=1;rounded=0;entryX=0.557;entryY=1.015;entryDx=0;entryDy=0;entryPerimeter=0;" parent="1" target="3AvT1jTzsXwBCu8fBLA7-49" edge="1">
          <mxGeometry width="50" height="50" relative="1" as="geometry">
            <mxPoint x="460" y="730" as="sourcePoint" />
            <mxPoint x="464.09000000000015" y="130" as="targetPoint" />
          </mxGeometry>
        </mxCell>
        <mxCell id="3AvT1jTzsXwBCu8fBLA7-51" value="" style="html=1;points=[];perimeter=orthogonalPerimeter;" parent="1" vertex="1">
          <mxGeometry x="665" y="450" width="10" height="240" as="geometry" />
        </mxCell>
        <mxCell id="3AvT1jTzsXwBCu8fBLA7-52" value="" style="endArrow=none;dashed=1;html=1;rounded=0;entryX=0.557;entryY=1.015;entryDx=0;entryDy=0;entryPerimeter=0;" parent="1" target="3AvT1jTzsXwBCu8fBLA7-51" edge="1">
          <mxGeometry width="50" height="50" relative="1" as="geometry">
            <mxPoint x="670" y="860" as="sourcePoint" />
            <mxPoint x="670" y="130" as="targetPoint" />
          </mxGeometry>
        </mxCell>
        <mxCell id="3AvT1jTzsXwBCu8fBLA7-53" value="" style="html=1;points=[];perimeter=orthogonalPerimeter;" parent="1" vertex="1">
          <mxGeometry x="845" y="610" width="10" height="90" as="geometry" />
        </mxCell>
        <mxCell id="3AvT1jTzsXwBCu8fBLA7-54" value="" style="endArrow=none;dashed=1;html=1;rounded=0;entryX=0.557;entryY=1.015;entryDx=0;entryDy=0;entryPerimeter=0;" parent="1" target="3AvT1jTzsXwBCu8fBLA7-53" edge="1">
          <mxGeometry width="50" height="50" relative="1" as="geometry">
            <mxPoint x="850" y="840" as="sourcePoint" />
            <mxPoint x="849.9999999999998" y="124" as="targetPoint" />
          </mxGeometry>
        </mxCell>
        <mxCell id="3AvT1jTzsXwBCu8fBLA7-55" value="" style="html=1;points=[];perimeter=orthogonalPerimeter;" parent="1" vertex="1">
          <mxGeometry x="1055" y="660" width="10" height="110" as="geometry" />
        </mxCell>
        <mxCell id="3AvT1jTzsXwBCu8fBLA7-56" value="" style="endArrow=none;dashed=1;html=1;rounded=0;entryX=0.557;entryY=1.015;entryDx=0;entryDy=0;entryPerimeter=0;" parent="1" target="3AvT1jTzsXwBCu8fBLA7-55" edge="1">
          <mxGeometry width="50" height="50" relative="1" as="geometry">
            <mxPoint x="1061" y="890" as="sourcePoint" />
            <mxPoint x="1059.0900000000001" y="130" as="targetPoint" />
          </mxGeometry>
        </mxCell>
        <mxCell id="3AvT1jTzsXwBCu8fBLA7-57" value="" style="endArrow=classic;html=1;rounded=0;" parent="1" edge="1">
          <mxGeometry relative="1" as="geometry">
            <mxPoint x="98" y="449" as="sourcePoint" />
            <mxPoint x="258" y="450" as="targetPoint" />
            <Array as="points">
              <mxPoint x="178" y="450" />
            </Array>
          </mxGeometry>
        </mxCell>
        <mxCell id="3AvT1jTzsXwBCu8fBLA7-58" value="Ajouter description" style="edgeLabel;html=1;align=center;verticalAlign=middle;resizable=0;points=[];" parent="3AvT1jTzsXwBCu8fBLA7-57" vertex="1" connectable="0">
          <mxGeometry x="0.0281" y="-2" relative="1" as="geometry">
            <mxPoint as="offset" />
          </mxGeometry>
        </mxCell>
        <mxCell id="3AvT1jTzsXwBCu8fBLA7-60" value="" style="endArrow=none;html=1;rounded=0;" parent="1" edge="1">
          <mxGeometry width="50" height="50" relative="1" as="geometry">
            <mxPoint x="40" y="424.52" as="sourcePoint" />
            <mxPoint x="1150" y="424.52" as="targetPoint" />
          </mxGeometry>
        </mxCell>
        <mxCell id="3AvT1jTzsXwBCu8fBLA7-61" value="" style="endArrow=none;html=1;rounded=0;entryX=0;entryY=0;entryDx=0;entryDy=0;" parent="1" edge="1" target="3AvT1jTzsXwBCu8fBLA7-64">
          <mxGeometry width="50" height="50" relative="1" as="geometry">
            <mxPoint x="40" y="480" as="sourcePoint" />
            <mxPoint x="40" y="410" as="targetPoint" />
          </mxGeometry>
        </mxCell>
        <mxCell id="3AvT1jTzsXwBCu8fBLA7-62" value="" style="endArrow=none;html=1;rounded=0;" parent="1" edge="1">
          <mxGeometry width="50" height="50" relative="1" as="geometry">
            <mxPoint x="40" y="480" as="sourcePoint" />
            <mxPoint x="1153.86474609375" y="480" as="targetPoint" />
          </mxGeometry>
        </mxCell>
        <mxCell id="3AvT1jTzsXwBCu8fBLA7-64" value="OPT" style="rounded=0;whiteSpace=wrap;html=1;" parent="1" vertex="1">
          <mxGeometry x="40" y="420" width="65" height="30" as="geometry" />
        </mxCell>
        <mxCell id="3AvT1jTzsXwBCu8fBLA7-65" value="" style="endArrow=classic;html=1;rounded=0;" parent="1" edge="1">
          <mxGeometry relative="1" as="geometry">
            <mxPoint x="100" y="510" as="sourcePoint" />
            <mxPoint x="260" y="511" as="targetPoint" />
            <Array as="points">
              <mxPoint x="180" y="511" />
            </Array>
          </mxGeometry>
        </mxCell>
        <mxCell id="3AvT1jTzsXwBCu8fBLA7-66" value="Valider l&#39;envoie" style="edgeLabel;html=1;align=center;verticalAlign=middle;resizable=0;points=[];" parent="3AvT1jTzsXwBCu8fBLA7-65" vertex="1" connectable="0">
          <mxGeometry x="0.0281" y="-2" relative="1" as="geometry">
            <mxPoint as="offset" />
          </mxGeometry>
        </mxCell>
        <mxCell id="B0HhbdmJokEHG4TNsa9u-1" value="" style="endArrow=classic;html=1;rounded=0;" parent="1" edge="1">
          <mxGeometry relative="1" as="geometry">
            <mxPoint x="665" y="604.68" as="sourcePoint" />
            <mxPoint x="470" y="604.5000000000001" as="targetPoint" />
            <Array as="points" />
          </mxGeometry>
        </mxCell>
        <mxCell id="B0HhbdmJokEHG4TNsa9u-2" value="Rendre les doc" style="edgeLabel;resizable=0;html=1;align=center;verticalAlign=middle;" parent="B0HhbdmJokEHG4TNsa9u-1" connectable="0" vertex="1">
          <mxGeometry relative="1" as="geometry">
            <mxPoint x="13" as="offset" />
          </mxGeometry>
        </mxCell>
        <mxCell id="QPtW96jmZYsKUkoPkygv-1" value="" style="endArrow=none;html=1;rounded=0;" edge="1" parent="1">
          <mxGeometry width="50" height="50" relative="1" as="geometry">
            <mxPoint x="1150" y="480" as="sourcePoint" />
            <mxPoint x="1150" y="430" as="targetPoint" />
          </mxGeometry>
        </mxCell>
        <mxCell id="QPtW96jmZYsKUkoPkygv-2" value="" style="endArrow=classic;html=1;rounded=0;" edge="1" parent="1">
          <mxGeometry relative="1" as="geometry">
            <mxPoint x="100" y="410" as="sourcePoint" />
            <mxPoint x="260" y="411" as="targetPoint" />
            <Array as="points">
              <mxPoint x="180" y="411" />
            </Array>
          </mxGeometry>
        </mxCell>
        <mxCell id="QPtW96jmZYsKUkoPkygv-3" value="Ajouter un titre" style="edgeLabel;html=1;align=center;verticalAlign=middle;resizable=0;points=[];" vertex="1" connectable="0" parent="QPtW96jmZYsKUkoPkygv-2">
          <mxGeometry x="0.0281" y="-2" relative="1" as="geometry">
            <mxPoint as="offset" />
          </mxGeometry>
        </mxCell>
      </root>
    </mxGraphModel>
  </diagram>
</mxfile>
